<?xml version="1.0" standalone="no"?>
<!DOCTYPE svg PUBLIC "-//W3C//DTD SVG 20010904//EN"
 "http://www.w3.org/TR/2001/REC-SVG-20010904/DTD/svg10.dtd">
<svg version="1.0" xmlns="http://www.w3.org/2000/svg"
 width="1280.000000pt" height="1261.000000pt" viewBox="0 0 1280.000000 1261.000000"
 preserveAspectRatio="xMidYMid meet">

<g transform="translate(0.000000,1261.000000) scale(0.100000,-0.100000)"
fill="#000000" stroke="none">
<path d="M6354 12487 c-11 -14 -33 -53 -60 -112 -11 -22 -22 -41 -26 -43 -5
-2 -8 -8 -8 -14 0 -6 -11 -26 -25 -44 -14 -18 -25 -40 -25 -48 0 -9 -4 -16 -9
-16 -5 0 -12 -11 -15 -25 -4 -14 -11 -25 -16 -25 -6 0 -10 -6 -10 -14 0 -8
-10 -27 -22 -43 -13 -15 -32 -46 -42 -68 -11 -22 -35 -61 -53 -88 -18 -26 -33
-52 -33 -57 0 -6 -11 -28 -25 -50 -14 -22 -25 -46 -25 -54 0 -8 -7 -16 -15
-20 -8 -3 -15 -12 -15 -21 0 -8 -3 -15 -8 -15 -8 0 -38 -61 -34 -73 1 -4 -5
-10 -13 -13 -8 -4 -15 -10 -15 -16 0 -5 -10 -24 -23 -41 -13 -18 -32 -51 -43
-74 -10 -24 -22 -43 -26 -43 -5 0 -8 -6 -8 -13 0 -8 -11 -27 -25 -43 -14 -16
-25 -36 -25 -45 0 -9 -7 -22 -15 -29 -8 -7 -15 -18 -15 -25 0 -8 -3 -15 -7
-17 -8 -3 -22 -27 -72 -123 -14 -27 -29 -51 -33 -53 -5 -2 -8 -9 -8 -15 0 -6
-6 -18 -14 -26 -8 -9 -26 -38 -42 -66 -15 -27 -36 -66 -47 -85 -11 -19 -34
-60 -50 -90 -16 -30 -33 -57 -38 -60 -4 -3 -11 -17 -14 -33 -4 -15 -11 -24
-16 -21 -5 3 -9 -2 -9 -10 0 -9 -4 -16 -10 -16 -5 0 -10 -7 -10 -15 0 -9 -22
-52 -50 -96 -27 -44 -50 -86 -50 -94 0 -7 -7 -18 -15 -25 -8 -7 -15 -21 -15
-31 0 -11 -4 -19 -9 -19 -5 0 -11 -8 -15 -17 -5 -18 -26 -53 -36 -63 -3 -3
-11 -16 -18 -30 -17 -35 -47 -87 -60 -102 -10 -14 -41 -68 -74 -130 -11 -21
-23 -38 -27 -38 -4 0 -15 -20 -25 -45 -10 -24 -26 -52 -35 -62 -9 -10 -25 -35
-35 -56 -11 -20 -23 -37 -28 -37 -4 0 -8 -6 -8 -14 0 -13 -29 -75 -40 -86 -3
-3 -14 -21 -24 -40 -11 -19 -22 -37 -25 -40 -6 -5 -17 -24 -63 -110 -14 -25
-34 -61 -45 -80 -25 -44 -83 -149 -97 -175 -6 -11 -20 -34 -31 -50 -12 -17
-30 -47 -40 -67 -11 -21 -23 -38 -27 -38 -5 0 -8 -7 -8 -15 0 -7 -14 -38 -30
-67 -17 -29 -36 -63 -42 -75 -6 -13 -15 -23 -20 -23 -4 0 -8 -8 -8 -18 0 -9
-11 -29 -25 -44 -14 -15 -25 -34 -25 -42 0 -8 -6 -19 -13 -23 -6 -4 -25 -34
-42 -65 -16 -32 -33 -58 -37 -58 -4 0 -8 -7 -8 -14 0 -8 -11 -27 -25 -42 -14
-15 -25 -32 -25 -39 0 -7 -7 -18 -15 -25 -8 -7 -15 -21 -15 -31 0 -11 -3 -19
-8 -19 -7 0 -10 -4 -49 -81 -13 -24 -35 -65 -50 -91 -16 -25 -46 -77 -68 -115
-22 -37 -45 -77 -52 -88 -6 -11 -21 -38 -32 -60 -12 -22 -34 -62 -51 -90 -17
-27 -33 -58 -36 -67 -4 -10 -10 -18 -15 -18 -5 0 -9 -8 -9 -19 0 -10 -7 -24
-15 -31 -8 -7 -15 -19 -15 -26 0 -8 -3 -14 -8 -14 -8 0 -16 -13 -51 -89 -14
-28 -28 -51 -33 -51 -4 0 -8 -9 -8 -20 0 -11 -4 -20 -10 -20 -5 0 -10 -5 -10
-11 0 -6 -11 -25 -24 -42 -13 -18 -27 -42 -31 -54 -3 -13 -11 -23 -16 -23 -5
0 -9 -5 -9 -12 0 -6 -10 -25 -23 -42 -13 -17 -37 -56 -53 -86 -16 -30 -32 -56
-36 -58 -5 -2 -8 -8 -8 -14 0 -5 -10 -24 -23 -41 -13 -18 -32 -50 -43 -72 -10
-22 -22 -41 -26 -43 -5 -2 -8 -10 -8 -17 0 -8 -6 -20 -13 -27 -7 -7 -20 -29
-30 -48 -9 -19 -30 -57 -46 -85 -16 -27 -38 -66 -49 -85 -51 -93 -65 -116 -76
-130 -7 -8 -20 -31 -30 -50 -19 -40 -32 -62 -62 -105 -11 -16 -28 -48 -39 -70
-21 -47 -67 -118 -77 -123 -5 -2 -8 -12 -8 -22 0 -10 -3 -20 -7 -22 -5 -1 -17
-21 -27 -43 -11 -22 -29 -53 -41 -70 -12 -16 -29 -46 -38 -65 -10 -19 -23 -44
-30 -55 -59 -95 -76 -125 -81 -143 -4 -12 -12 -22 -17 -22 -5 0 -9 -8 -9 -18
0 -11 -8 -26 -17 -35 -10 -9 -29 -37 -43 -64 -14 -26 -28 -49 -32 -51 -5 -2
-8 -10 -8 -19 0 -8 -11 -29 -25 -47 -14 -18 -25 -38 -25 -44 0 -6 -3 -12 -7
-14 -5 -1 -17 -21 -27 -43 -11 -22 -30 -54 -43 -72 -13 -17 -23 -34 -23 -36 0
-3 -26 -50 -59 -104 -32 -54 -61 -109 -65 -121 -4 -12 -12 -22 -17 -22 -5 0
-9 -9 -9 -19 0 -11 -3 -21 -7 -23 -10 -4 -51 -68 -93 -143 -18 -33 -36 -62
-39 -65 -4 -3 -21 -34 -39 -70 -18 -36 -46 -86 -62 -112 -16 -26 -43 -73 -61
-105 -18 -31 -47 -81 -65 -110 -19 -28 -34 -55 -34 -59 0 -4 -10 -21 -23 -38
-12 -17 -31 -49 -42 -71 -11 -22 -23 -41 -27 -43 -5 -2 -8 -10 -8 -19 0 -8
-11 -29 -25 -47 -14 -18 -25 -38 -25 -44 0 -6 -3 -12 -7 -14 -5 -1 -17 -21
-28 -43 -11 -22 -41 -75 -67 -117 -27 -43 -48 -80 -48 -83 0 -3 -23 -41 -50
-85 -28 -44 -50 -82 -50 -85 0 -3 -15 -30 -34 -59 -18 -29 -37 -62 -40 -74 -4
-12 -12 -22 -17 -22 -5 0 -9 -7 -9 -16 0 -8 -11 -30 -25 -48 -14 -18 -25 -38
-25 -44 0 -6 -3 -12 -7 -14 -5 -1 -17 -21 -28 -43 -10 -22 -33 -62 -50 -90
-17 -27 -34 -57 -38 -65 -4 -8 -16 -28 -27 -45 -11 -16 -23 -37 -27 -45 -4 -8
-22 -38 -40 -67 -18 -29 -33 -57 -33 -63 0 -6 -11 -26 -25 -44 -14 -18 -25
-38 -25 -44 0 -6 -3 -12 -7 -14 -5 -1 -17 -21 -28 -43 -11 -22 -41 -75 -67
-117 -27 -43 -48 -80 -48 -83 0 -3 -15 -30 -34 -59 -18 -29 -37 -62 -40 -74
-4 -12 -12 -22 -17 -22 -5 0 -9 -7 -9 -15 0 -16 -25 -60 -46 -82 -7 -7 -22
-34 -35 -60 -12 -26 -33 -61 -45 -78 -12 -16 -38 -59 -57 -95 -103 -196 -134
-253 -175 -315 -6 -11 -15 -27 -19 -35 -3 -8 -33 -57 -65 -108 -41 -65 -57
-99 -53 -112 6 -20 63 -20 6218 -18 l6212 3 3 26 c2 14 -4 31 -12 39 -9 7 -16
19 -16 26 0 8 -4 14 -10 14 -5 0 -10 8 -10 19 0 10 -7 24 -15 31 -8 7 -15 17
-15 22 0 6 -10 24 -22 41 -28 38 -48 76 -48 89 0 5 -5 14 -10 21 -20 23 -90
136 -90 145 0 5 -7 15 -15 22 -8 7 -15 19 -15 26 0 13 -46 91 -61 104 -3 3 -8
12 -12 20 -3 8 -20 38 -36 65 -17 28 -40 68 -51 90 -11 22 -34 60 -50 85 -15
25 -41 70 -57 100 -43 79 -57 104 -65 110 -4 3 -30 50 -58 105 -28 55 -56 106
-63 113 -12 15 -32 47 -43 72 -4 8 -10 17 -13 20 -4 3 -12 16 -19 30 -15 32
-42 77 -67 115 -28 43 -41 64 -68 115 -39 76 -78 144 -91 160 -7 8 -25 41 -41
73 -16 31 -34 62 -42 68 -7 7 -13 18 -13 25 0 8 -4 14 -10 14 -5 0 -10 8 -10
19 0 10 -7 24 -15 31 -8 7 -15 17 -15 22 0 5 -15 32 -33 61 -18 29 -36 59 -40
67 -4 8 -21 38 -37 65 -16 28 -38 68 -49 90 -33 64 -64 118 -87 150 -11 17
-24 37 -28 45 -4 8 -12 24 -19 35 -48 80 -73 123 -84 140 -7 11 -15 27 -19 35
-7 15 -56 97 -82 136 -6 10 -15 26 -19 34 -4 8 -22 38 -40 67 -18 29 -33 59
-33 66 0 8 -7 17 -15 21 -8 3 -15 15 -15 26 0 11 -4 20 -10 20 -5 0 -10 5 -10
12 0 6 -11 26 -25 44 -14 18 -25 40 -25 48 0 9 -4 16 -8 16 -9 0 -42 70 -42
88 0 7 -4 12 -10 12 -5 0 -19 17 -30 38 -11 20 -26 46 -33 57 -34 55 -74 122
-80 135 -4 8 -21 38 -37 65 -17 28 -38 66 -47 85 -9 19 -23 39 -30 43 -7 4
-13 16 -13 27 0 10 -4 20 -9 22 -12 5 -61 86 -61 102 0 8 -7 16 -15 20 -8 3
-15 15 -15 26 0 11 -3 20 -7 20 -5 0 -17 20 -28 45 -11 25 -22 45 -26 45 -4 0
-10 8 -13 18 -8 21 -28 55 -44 74 -6 8 -10 17 -7 20 3 3 -1 11 -10 18 -8 7
-15 19 -15 26 0 8 -4 14 -9 14 -5 0 -11 8 -15 18 -6 19 -19 40 -53 89 -13 17
-23 39 -23 47 0 9 -4 16 -10 16 -5 0 -10 9 -10 20 0 11 -4 20 -10 20 -5 0 -12
11 -16 25 -3 14 -10 25 -15 25 -5 0 -9 9 -9 20 0 10 -6 23 -13 27 -6 4 -19 22
-27 38 -8 17 -21 36 -27 43 -7 7 -13 20 -13 28 0 8 -4 14 -10 14 -5 0 -10 8
-10 19 0 10 -7 24 -15 31 -8 7 -15 19 -15 26 0 8 -4 14 -9 14 -5 0 -12 8 -15
18 -8 21 -28 55 -44 74 -6 8 -10 17 -7 20 3 3 -1 11 -10 18 -8 7 -15 19 -15
26 0 8 -9 25 -21 38 -12 13 -31 42 -43 64 -11 23 -32 61 -45 86 -14 25 -28 46
-33 46 -4 0 -8 9 -8 20 0 11 -3 20 -8 20 -7 0 -25 30 -38 63 -3 9 -10 17 -15
17 -5 0 -9 9 -9 19 0 11 -5 23 -10 26 -6 3 -19 25 -30 48 -12 23 -39 71 -61
107 -22 36 -44 74 -49 85 -11 22 -24 43 -55 90 -11 16 -27 43 -36 60 -9 16
-28 50 -43 75 -15 25 -32 57 -39 73 -6 15 -15 27 -19 27 -4 0 -8 6 -8 14 0 7
-7 19 -15 26 -8 7 -15 21 -15 31 0 11 -3 19 -8 19 -8 0 -13 8 -50 84 -12 25
-27 46 -32 46 -6 0 -10 7 -10 17 0 9 -10 30 -23 47 -13 17 -31 48 -41 69 -9
20 -21 37 -26 37 -6 0 -10 11 -10 24 0 13 -7 26 -15 30 -8 3 -14 9 -14 13 3
13 -29 79 -43 90 -8 6 -109 13 -248 18 -279 8 -260 8 -481 -1 -159 -5 -179 -4
-205 12 -48 30 -94 77 -94 97 0 10 -7 25 -15 34 -8 8 -13 19 -10 23 9 14 -33
50 -58 50 -12 0 -32 6 -43 14 -18 13 -85 22 -204 29 -57 3 -62 -15 -23 -74 15
-23 33 -51 39 -61 7 -11 17 -25 23 -31 6 -6 11 -21 11 -34 0 -13 5 -23 10 -23
6 0 10 -5 10 -12 0 -6 6 -19 14 -27 11 -14 34 -53 110 -196 6 -11 21 -34 34
-52 12 -17 22 -33 22 -36 0 -3 20 -39 44 -81 25 -41 55 -94 66 -118 37 -75 68
-130 79 -141 6 -6 11 -17 11 -24 0 -8 11 -26 25 -41 14 -15 25 -30 25 -35 0
-4 23 -43 50 -87 28 -44 50 -82 50 -85 0 -21 72 -106 165 -197 164 -160 387
-384 410 -411 30 -36 49 -71 87 -151 17 -37 17 -231 0 -248 -15 -15 -16 -144
-2 -153 6 -3 10 -15 10 -26 0 -10 4 -19 10 -19 5 0 16 -16 25 -35 9 -19 23
-39 31 -46 8 -6 14 -18 14 -25 0 -8 5 -14 10 -14 6 0 10 -7 10 -15 0 -8 4 -15
10 -15 5 0 12 -11 16 -25 3 -14 9 -25 13 -25 3 0 15 -19 26 -43 11 -23 34 -65
52 -94 18 -29 33 -56 33 -61 0 -5 7 -15 15 -22 8 -7 15 -21 15 -31 0 -11 4
-19 8 -19 5 0 23 -28 41 -62 18 -35 46 -85 61 -113 16 -27 42 -75 58 -105 40
-76 55 -102 70 -118 6 -7 12 -20 12 -28 0 -8 4 -14 9 -14 5 0 11 -8 15 -17 5
-18 26 -53 36 -63 3 -3 10 -14 16 -25 63 -116 78 -141 85 -149 5 -6 9 -18 9
-27 0 -9 7 -19 15 -23 8 -3 15 -15 15 -26 0 -11 5 -20 10 -20 6 0 10 -9 10
-20 0 -11 6 -23 13 -26 8 -3 20 -20 27 -39 8 -19 16 -35 20 -35 3 0 14 -17 25
-37 11 -21 26 -44 32 -51 7 -7 13 -20 13 -28 0 -8 5 -14 10 -14 6 0 10 -9 10
-20 0 -11 4 -20 10 -20 5 0 12 -11 16 -25 3 -14 10 -25 15 -25 5 0 9 -7 9 -16
0 -8 10 -30 23 -47 34 -49 47 -70 53 -89 4 -10 10 -18 14 -18 4 0 10 -8 13
-17 7 -22 44 -87 73 -128 11 -17 33 -57 50 -90 16 -33 34 -64 41 -68 7 -4 13
-17 13 -27 0 -11 4 -20 8 -20 4 0 13 -12 19 -27 7 -16 23 -46 37 -68 37 -60
56 -97 56 -110 0 -7 7 -15 15 -19 8 -3 15 -15 15 -26 0 -11 3 -20 8 -20 7 0
25 -30 38 -63 3 -9 10 -17 15 -17 5 0 9 -9 9 -20 0 -11 4 -20 9 -20 5 0 13
-10 17 -22 4 -13 9 -25 13 -28 8 -7 27 -37 48 -79 9 -19 27 -45 40 -59 13 -14
23 -32 24 -41 0 -9 2 -26 5 -39 2 -13 -4 -30 -17 -43 -18 -18 -27 -20 -58 -13
-31 8 -1307 11 -2161 6 -162 -1 -736 -1 -1275 0 -539 2 -1068 2 -1175 1 -107
-1 -395 -1 -640 0 -245 1 -591 1 -770 0 -179 -2 -649 -2 -1045 -1 -447 1 -745
-2 -786 -8 -77 -12 -99 -6 -123 30 -18 29 -20 24 65 165 45 74 317 546 352
611 22 41 51 92 64 112 13 21 23 40 23 43 0 2 15 28 33 57 19 29 45 73 59 98
60 109 156 274 218 375 36 61 91 155 122 210 31 55 80 141 108 190 143 243
360 624 360 631 0 1 55 94 122 206 115 193 249 424 308 533 15 28 67 118 115
200 89 151 97 165 152 265 17 30 70 122 117 204 47 82 86 151 86 152 0 2 25
45 56 96 31 51 65 107 74 123 10 17 74 128 144 247 69 119 136 236 149 260 40
73 79 142 87 153 4 6 22 37 40 70 53 96 65 116 108 188 23 37 42 70 42 73 0 3
22 42 48 87 63 106 210 357 277 472 29 50 85 146 124 215 39 69 76 132 81 140
6 8 13 22 17 30 4 8 17 32 30 53 30 47 50 83 93 167 19 36 45 79 57 96 13 17
23 34 23 39 0 4 31 60 69 124 38 64 79 136 92 161 13 25 27 47 31 48 4 2 8 13
8 23 0 11 4 18 9 15 4 -3 17 10 27 29 17 32 44 48 44 26 0 -5 14 -12 30 -16
17 -4 30 -12 30 -20 0 -7 7 -18 15 -25 8 -7 15 -23 15 -36 0 -13 4 -24 8 -24
5 0 17 -20 28 -45 10 -25 21 -45 25 -45 4 0 10 -13 14 -30 4 -16 11 -30 16
-30 5 0 9 -6 9 -14 0 -8 17 -42 38 -75 61 -100 81 -135 92 -159 5 -13 14 -20
20 -17 5 3 7 0 4 -9 -3 -8 5 -30 18 -48 30 -43 44 -66 65 -108 9 -19 20 -37
23 -40 13 -12 40 -60 40 -74 0 -7 6 -16 13 -19 8 -3 22 -21 31 -41 9 -20 21
-36 26 -36 5 0 7 -6 4 -13 -3 -8 2 -20 11 -27 8 -7 15 -21 15 -31 0 -11 4 -19
9 -19 5 0 12 -9 16 -19 8 -27 74 -93 114 -113 18 -10 46 -18 62 -18 18 0 28
-4 24 -10 -4 -6 6 -10 24 -10 16 0 36 -7 45 -15 8 -8 28 -15 45 -15 16 0 33
-4 36 -10 3 -5 13 -10 21 -10 9 0 22 -7 30 -15 9 -8 26 -15 39 -15 13 0 27 -4
30 -10 3 -5 14 -10 24 -10 10 0 24 -6 31 -14 6 -8 17 -13 24 -10 8 3 20 -2 29
-10 9 -9 25 -16 37 -16 12 0 19 -4 16 -8 -5 -9 37 -29 109 -53 22 -8 44 -20
48 -26 4 -7 21 -13 37 -13 17 0 30 -4 30 -10 0 -5 13 -10 29 -10 16 0 36 -7
45 -15 8 -8 28 -15 45 -15 16 0 33 -4 36 -10 3 -5 30 -10 60 -10 34 0 59 -5
69 -15 8 -8 31 -15 50 -15 20 0 36 -4 36 -9 0 -5 15 -11 33 -14 32 -5 87 -22
119 -38 10 -5 29 -9 43 -9 15 0 24 -5 22 -12 -1 -8 10 -14 26 -16 15 -2 27 -8
27 -13 0 -5 11 -9 24 -9 13 0 26 -3 28 -7 2 -5 22 -20 46 -36 30 -20 42 -23
42 -13 0 8 -7 21 -15 30 -8 8 -15 22 -15 31 0 8 -7 18 -15 21 -8 4 -15 12 -15
20 0 13 -45 101 -61 119 -5 5 -9 17 -9 27 0 10 -4 18 -9 18 -9 0 -41 55 -41
71 0 4 -11 20 -25 35 -14 15 -25 33 -25 40 0 8 -4 14 -9 14 -5 0 -12 11 -15
25 -4 14 -11 25 -16 25 -6 0 -10 9 -10 19 0 11 -4 22 -9 25 -5 4 -20 27 -33
54 -53 103 -70 132 -79 132 -5 0 -9 9 -9 20 0 11 -4 20 -10 20 -5 0 -10 11
-10 25 0 14 -5 25 -10 25 -6 0 -18 18 -27 40 -10 22 -21 40 -24 40 -4 0 -22
29 -40 65 -17 35 -36 62 -41 59 -4 -3 -8 6 -8 20 0 14 -4 26 -10 26 -5 0 -18
19 -29 43 -11 23 -20 38 -21 32 0 -11 -40 65 -40 78 0 4 -9 18 -21 30 -11 12
-23 34 -26 50 -3 15 -10 27 -14 27 -5 0 -14 12 -19 26 -6 14 -14 23 -19 20 -5
-4 -7 3 -4 14 3 11 1 20 -5 20 -5 0 -24 29 -42 65 -18 36 -36 65 -41 65 -5 0
-9 9 -9 20 0 11 -3 20 -8 20 -4 0 -13 14 -20 30 -8 17 -18 27 -24 24 -7 -4 -8
-2 -4 4 4 7 -5 29 -19 49 -14 21 -25 42 -25 47 0 5 -6 17 -14 25 -8 9 -26 40
-41 69 -15 29 -31 55 -36 58 -5 3 -9 13 -9 24 0 10 -7 20 -15 24 -8 3 -15 12
-15 21 0 8 -4 15 -10 15 -5 0 -10 9 -10 20 0 11 -3 20 -8 20 -9 0 -48 71 -44
82 1 4 -5 8 -13 8 -8 0 -15 8 -16 18 0 9 -9 31 -20 47 -11 17 -22 38 -25 48
-4 9 -10 17 -15 17 -5 0 -9 9 -9 20 0 11 -7 23 -15 26 -8 4 -15 12 -15 19 0
16 -18 50 -47 92 -13 17 -23 38 -23 47 0 9 -4 16 -9 16 -5 0 -13 10 -17 22 -3
12 -10 26 -15 32 -25 30 -59 89 -59 101 0 8 -7 15 -15 15 -9 0 -15 9 -15 25 0
14 -4 25 -10 25 -5 0 -10 12 -10 27 0 14 -3 23 -6 20 -10 -10 -44 39 -44 62 0
12 -3 21 -7 21 -10 0 -43 58 -43 75 0 7 -7 15 -15 19 -8 3 -15 12 -15 21 0 8
-4 15 -10 15 -5 0 -10 7 -10 15 0 15 -6 24 -36 58 -6 7 -15 23 -18 35 -4 12
-12 20 -17 17 -5 -3 -6 0 -3 8 3 8 -2 20 -11 27 -8 7 -15 21 -15 31 0 11 -3
19 -8 19 -4 0 -16 17 -27 38 -11 20 -23 39 -26 42 -12 9 -39 69 -39 85 0 9 -4
13 -10 10 -5 -3 -10 2 -10 11 0 10 -6 25 -14 33 -8 9 -16 22 -18 30 -2 8 -11
23 -21 33 -10 10 -15 24 -11 30 4 7 3 8 -4 4 -8 -5 -12 1 -12 14 0 12 -4 19
-9 16 -5 -3 -12 5 -15 19 -4 14 -11 25 -16 25 -6 0 -10 11 -10 24 0 13 -7 27
-16 30 -9 4 -14 13 -10 21 3 9 -1 18 -9 21 -8 4 -15 15 -15 26 0 10 -4 17 -9
14 -5 -3 -11 4 -14 15 -3 12 -10 19 -14 16 -5 -3 -10 6 -11 21 -1 14 -9 30
-17 35 -8 4 -15 17 -15 27 0 18 -30 80 -52 108 -13 15 -90 15 -104 -1z m-1781
-9317 c118 -58 163 -112 193 -228 19 -72 18 -209 -1 -258 -45 -112 -109 -204
-142 -204 -7 0 -13 -3 -13 -7 0 -5 -21 -16 -48 -26 -26 -11 -57 -24 -69 -29
-31 -15 -221 -14 -235 0 -7 7 -26 12 -44 12 -17 0 -37 7 -44 15 -7 8 -18 15
-25 15 -8 0 -45 30 -83 68 -63 61 -72 75 -96 147 -68 209 7 420 179 500 84 39
118 45 231 41 108 -3 115 -5 197 -46z m-1743 16 c0 -8 7 -27 17 -43 17 -31 14
-64 -11 -98 -13 -18 -28 -20 -130 -23 l-116 -4 -15 -28 c-12 -23 -15 -76 -15
-262 0 -128 -3 -243 -6 -254 -8 -31 -45 -47 -108 -48 -40 0 -60 5 -75 18 -21
19 -21 28 -21 381 0 199 3 365 7 368 3 4 111 7 240 7 194 0 233 -2 233 -14z
m828 -37 c26 -56 24 -81 -9 -122 -15 -20 -30 -27 -54 -27 -19 0 -37 5 -40 10
-3 6 -46 10 -94 10 -76 0 -90 -3 -106 -20 -15 -16 -17 -26 -9 -48 12 -34 36
-39 172 -41 98 -1 104 -2 128 -28 35 -38 41 -70 18 -112 -24 -44 -45 -50 -159
-44 -79 4 -94 2 -123 -16 -35 -22 -55 -61 -46 -86 5 -12 32 -15 163 -15 l157
0 22 -29 c33 -45 37 -76 13 -114 -35 -57 -55 -62 -185 -49 -62 7 -158 12 -213
12 -58 0 -110 5 -126 13 l-27 12 0 373 0 372 248 0 247 0 23 -51z m1698 24
c11 -16 25 -39 31 -53 44 -94 73 -163 73 -175 0 -8 5 -17 10 -20 6 -3 10 -23
10 -44 0 -21 3 -41 8 -45 4 -4 12 -22 18 -39 14 -39 7 -54 94 203 l65 195 133
0 134 0 14 -40 c11 -32 14 -106 12 -368 -2 -317 -3 -329 -22 -343 -25 -17
-108 -18 -153 -2 l-33 12 0 77 c0 43 -4 81 -10 84 -18 11 -78 -45 -99 -94 -32
-75 -99 -106 -174 -82 -33 11 -36 17 -72 119 -83 239 -109 307 -113 287 -3
-11 -2 -98 0 -194 5 -172 5 -173 -19 -197 -19 -19 -34 -24 -78 -24 -30 0 -66
5 -80 12 l-25 11 0 374 0 373 128 0 128 0 20 -27z m1434 8 c0 -11 5 -23 10
-26 19 -12 11 -100 -11 -130 -20 -25 -26 -26 -73 -20 -28 3 -86 8 -128 11 -73
5 -77 4 -93 -19 -15 -23 -15 -28 0 -56 l16 -31 132 0 132 0 13 -40 c19 -63 15
-103 -14 -135 -21 -23 -30 -26 -57 -20 -18 4 -66 9 -107 12 -66 4 -79 2 -103
-17 -21 -17 -27 -30 -27 -61 l0 -39 163 0 162 0 19 -42 c24 -56 16 -105 -21
-136 -26 -21 -34 -22 -113 -16 -47 3 -146 7 -220 8 -86 2 -145 8 -162 16 l-28
13 0 374 0 373 255 0 c246 0 255 -1 255 -19z m870 0 c0 -11 5 -23 10 -26 19
-12 12 -93 -11 -116 -18 -18 -28 -20 -79 -14 -36 4 -66 3 -79 -4 -21 -12 -22
-25 -31 -416 0 -16 2 -58 6 -92 5 -56 4 -62 -16 -73 -30 -16 -120 -17 -158 -1
l-32 13 0 284 0 284 -80 0 c-43 0 -91 5 -105 12 -24 11 -25 15 -25 90 l0 78
300 0 c290 0 300 -1 300 -19z m718 -3 c135 -40 173 -102 156 -255 -10 -97 -43
-150 -118 -194 -45 -25 -61 -29 -132 -29 -71 0 -83 -3 -102 -22 -32 -35 -43
-76 -37 -137 8 -75 -7 -100 -69 -119 -47 -15 -50 -15 -92 8 l-44 23 0 327 c0
180 3 348 6 374 l7 46 174 0 c152 0 185 -3 251 -22z m632 -11 c0 -18 4 -37 10
-43 5 -5 11 -89 12 -188 l3 -179 124 199 c68 109 130 209 138 222 13 20 20 22
117 22 l104 0 8 -42 c4 -24 7 -158 6 -298 -1 -170 2 -271 10 -303 11 -43 10
-53 -7 -85 -29 -53 -103 -65 -180 -30 l-25 11 0 199 c0 200 -3 213 -35 190
-13 -8 -55 -67 -72 -99 -6 -12 -18 -35 -26 -50 -9 -15 -23 -46 -33 -68 -9 -22
-20 -42 -23 -45 -3 -3 -17 -27 -31 -55 -19 -38 -35 -55 -70 -72 -50 -26 -133
-31 -187 -11 l-33 12 0 373 0 373 95 0 95 0 0 -33z m1451 16 c18 -21 23 -493
6 -566 -8 -36 -8 -50 1 -59 16 -16 15 -78 -1 -99 -15 -20 -81 -49 -109 -49
-16 0 -55 21 -88 47 -2 2 -3 49 -2 104 2 55 0 108 -3 119 -7 23 -48 27 -92 8
-35 -15 -93 -68 -93 -85 0 -7 -4 -21 -9 -31 -5 -9 -17 -39 -28 -67 -19 -52
-35 -64 -109 -85 -36 -11 -46 -10 -85 10 -24 12 -45 23 -46 24 -1 1 4 32 12
69 18 85 56 156 112 207 41 38 49 70 18 70 -22 0 -65 41 -86 83 -18 33 -20 52
-15 99 3 32 12 71 20 87 31 58 101 102 201 124 11 3 102 5 201 6 158 1 183 -1
195 -16z"/>
<path d="M4236 2984 c-20 -20 -41 -49 -48 -65 -7 -16 -16 -29 -20 -29 -12 0
-10 -118 2 -125 6 -3 10 -15 10 -26 0 -33 49 -100 85 -115 44 -18 138 -18 173
0 85 45 133 151 112 249 -12 58 -28 81 -81 120 -32 24 -45 27 -117 27 -80 0
-81 0 -116 -36z"/>
<path d="M8188 3029 c-31 -12 -40 -41 -32 -103 l7 -46 46 0 c28 0 59 8 79 20
26 16 32 26 32 56 0 41 -12 56 -59 72 -39 14 -37 14 -73 1z"/>
<path d="M10082 2995 c-29 -33 -28 -46 6 -78 23 -22 41 -29 96 -34 77 -7 86
-1 86 57 0 77 -4 80 -89 80 -70 0 -79 -2 -99 -25z"/>
<path d="M6415 9521 c-3 -11 -12 -22 -20 -25 -8 -3 -15 -15 -15 -26 0 -11 -4
-20 -10 -20 -5 0 -10 -5 -10 -10 0 -6 -34 -64 -75 -130 -41 -66 -75 -126 -75
-134 0 -7 -7 -19 -15 -26 -8 -7 -15 -17 -15 -23 0 -5 -11 -25 -25 -43 -14 -18
-25 -37 -25 -43 0 -6 -4 -11 -10 -11 -5 0 -10 -6 -10 -14 0 -16 -29 -73 -46
-92 -6 -7 -17 -26 -24 -43 -7 -17 -16 -31 -21 -31 -5 0 -9 -8 -9 -17 0 -10 -7
-27 -15 -37 -8 -10 -12 -22 -10 -26 3 -5 -2 -10 -10 -14 -8 -3 -15 -11 -15
-18 0 -7 -12 -24 -25 -37 -14 -13 -25 -32 -25 -42 0 -10 -4 -19 -9 -19 -5 0
-12 -11 -15 -25 -4 -14 -11 -25 -16 -25 -6 0 -10 -5 -10 -11 0 -6 -11 -25 -25
-43 -14 -18 -25 -39 -25 -45 0 -12 -29 -70 -40 -81 -10 -10 -31 -45 -36 -62
-4 -10 -10 -18 -15 -18 -5 0 -9 -8 -9 -19 0 -10 -7 -24 -15 -31 -8 -7 -15 -19
-15 -26 0 -8 -4 -14 -10 -14 -5 0 -10 -5 -10 -11 0 -6 -10 -25 -23 -42 -13
-18 -32 -50 -43 -72 -10 -22 -22 -41 -26 -43 -5 -2 -8 -12 -8 -22 0 -10 -4
-21 -9 -25 -6 -3 -16 -18 -24 -33 -8 -15 -29 -53 -46 -84 -17 -31 -28 -59 -24
-61 5 -3 33 10 62 29 100 63 211 97 371 114 135 15 374 51 455 69 111 25 144
30 224 36 46 3 92 10 102 16 20 10 27 59 9 59 -5 0 -10 9 -10 19 0 11 -7 26
-15 35 -8 8 -15 22 -15 30 0 9 -4 16 -10 16 -9 0 -37 36 -77 96 -7 11 -24 36
-38 57 -14 21 -25 44 -25 51 0 8 -7 16 -15 20 -8 3 -15 15 -15 26 0 11 -4 20
-10 20 -5 0 -10 6 -10 14 0 7 -7 19 -15 26 -8 7 -15 23 -15 36 0 13 -4 24 -10
24 -5 0 -10 12 -10 26 0 14 -4 22 -10 19 -5 -3 -12 7 -15 22 -4 15 -10 36 -16
45 -5 10 -9 28 -9 41 0 13 -5 28 -12 35 -24 24 -50 314 -29 335 6 6 11 19 11
28 0 9 27 42 61 73 59 55 85 65 148 57 7 -2 10 2 6 8 -3 6 -1 11 4 11 6 0 11
9 11 19 0 21 -30 84 -42 89 -5 2 -8 10 -8 18 0 20 -41 74 -56 74 -7 0 -15 -9
-19 -19z"/>
<path d="M6430 7283 c-30 -2 -59 -8 -64 -14 -6 -5 -24 -9 -42 -9 -18 0 -47 -8
-66 -17 -60 -30 -68 -33 -83 -33 -8 0 -15 -4 -15 -8 0 -5 -18 -17 -40 -28 -37
-18 -260 -233 -260 -251 0 -4 -10 -19 -23 -33 -12 -14 -36 -43 -52 -65 -16
-22 -47 -61 -67 -86 -21 -25 -38 -49 -38 -53 0 -4 -11 -19 -25 -34 -14 -15
-25 -32 -25 -39 0 -7 -4 -13 -8 -13 -10 0 -32 -59 -32 -86 0 -47 62 -91 140
-100 34 -4 94 -15 190 -34 25 -5 61 -12 80 -15 61 -10 124 -27 155 -40 17 -8
46 -20 65 -29 49 -21 130 -86 145 -116 13 -25 33 -72 53 -120 26 -63 35 -148
23 -217 -16 -91 -29 -140 -52 -190 -23 -49 -105 -143 -125 -143 -8 0 -14 -4
-14 -9 0 -5 -8 -11 -17 -15 -10 -3 -31 -14 -48 -24 -66 -40 -161 -65 -250 -64
-90 0 -236 27 -291 54 -21 10 -100 6 -176 -7 -23 -4 -38 -3 -38 3 0 5 -13 12
-29 15 -16 4 -32 14 -35 24 -6 18 -106 93 -123 93 -5 0 -29 22 -54 50 -36 40
-50 50 -76 50 -23 0 -33 -5 -33 -15 0 -8 -4 -23 -9 -33 -22 -45 -40 -90 -49
-127 -38 -141 -37 -135 -76 -420 -34 -248 -43 -296 -55 -308 -6 -6 -11 -21
-11 -34 0 -13 -4 -31 -9 -41 -15 -31 -41 -119 -41 -140 0 -12 -4 -24 -10 -27
-5 -3 -10 -20 -10 -36 0 -16 -7 -46 -15 -66 -8 -19 -15 -48 -15 -64 0 -15 -4
-30 -9 -33 -4 -3 -11 -29 -15 -58 -4 -29 -11 -57 -16 -63 -4 -5 -10 -35 -13
-65 -9 -95 -35 -294 -42 -316 -4 -13 0 -35 9 -53 16 -31 17 -31 99 -31 90 -1
256 -22 300 -39 20 -8 451 -11 1463 -11 l1434 0 0 25 c0 14 -4 33 -9 43 -37
73 -41 96 -41 225 0 125 -10 190 -38 243 -5 11 -15 33 -22 49 -7 17 -16 38
-21 48 -18 34 -39 105 -45 150 -11 76 1 106 76 196 107 130 103 105 101 642
-2 429 -1 464 19 570 33 173 73 276 154 394 58 85 62 99 40 143 -19 38 -67 92
-80 92 -4 0 -22 11 -40 25 -18 14 -36 25 -40 25 -4 0 -22 11 -40 25 -18 14
-37 25 -43 25 -6 0 -11 5 -11 10 0 6 -7 10 -15 10 -8 0 -15 4 -15 10 0 5 -11
12 -25 16 -14 3 -25 9 -25 13 0 4 -22 20 -50 36 -27 16 -50 32 -50 35 0 4 -18
15 -40 26 -22 10 -40 22 -40 27 0 4 -5 7 -10 7 -23 0 -161 111 -251 202 l-97
97 -148 4 c-158 5 -266 19 -272 36 -2 6 -12 11 -21 11 -24 0 -77 26 -132 67
-26 18 -51 33 -57 33 -6 0 -12 5 -14 11 -4 12 -167 20 -258 12z"/>
<path d="M4563 6342 c-12 -15 -33 -48 -45 -74 -13 -27 -26 -48 -30 -48 -5 0
-8 -8 -9 -17 0 -10 -9 -31 -19 -48 -11 -16 -28 -49 -40 -72 -11 -23 -24 -45
-30 -48 -5 -3 -10 -13 -10 -22 0 -9 -11 -31 -25 -49 -14 -18 -25 -37 -25 -43
0 -6 -4 -11 -9 -11 -5 0 -11 -8 -15 -17 -3 -10 -14 -31 -24 -48 -10 -16 -34
-57 -52 -90 -18 -33 -38 -69 -44 -80 -6 -10 -15 -25 -21 -32 -5 -7 -15 -18
-20 -25 -6 -7 -19 -31 -29 -53 -18 -38 -65 -115 -76 -125 -4 -3 -14 -23 -25
-45 -10 -22 -44 -81 -77 -132 -32 -51 -58 -95 -58 -99 0 -3 -8 -18 -19 -32
-10 -15 -40 -67 -66 -117 -26 -49 -50 -92 -54 -95 -3 -3 -19 -32 -35 -65 -16
-33 -35 -67 -42 -75 -6 -8 -24 -37 -40 -65 -15 -27 -36 -66 -47 -85 -10 -19
-25 -42 -32 -50 -7 -8 -27 -44 -46 -80 -18 -36 -44 -83 -58 -105 -14 -22 -35
-58 -46 -80 -11 -22 -30 -54 -42 -71 -13 -17 -23 -36 -23 -42 0 -6 -3 -12 -7
-14 -5 -1 -17 -21 -28 -43 -10 -22 -33 -63 -50 -90 -16 -28 -46 -81 -65 -118
-19 -37 -47 -82 -62 -99 -38 -44 -70 -108 -64 -124 5 -12 79 -14 443 -12 l438
3 2 80 c2 89 19 300 34 415 5 41 13 116 19 165 5 50 17 135 25 190 9 55 20
127 24 160 5 33 12 71 15 85 3 14 11 66 17 115 26 213 38 253 113 372 32 50
73 166 137 382 21 69 65 173 134 310 108 214 138 296 133 355 l-3 35 -22 -27z"/>
<path d="M8622 5643 c-20 -68 -34 -127 -39 -163 -2 -19 -8 -44 -12 -55 -15
-36 -48 -200 -61 -305 -6 -41 -13 -82 -16 -90 -9 -20 -23 -98 -33 -185 -5 -39
-14 -90 -21 -113 -15 -59 -11 -298 7 -365 12 -41 13 -98 9 -267 -6 -243 -1
-266 61 -295 20 -10 62 -37 94 -61 l57 -44 559 2 558 3 3 31 c2 23 -10 52 -47
112 -28 45 -51 84 -51 87 0 10 -103 170 -111 173 -5 2 -9 12 -9 22 0 10 -5 22
-10 25 -6 3 -19 25 -30 48 -11 23 -32 60 -46 82 -13 22 -30 51 -36 65 -14 28
-89 152 -98 160 -3 3 -12 19 -20 35 -8 17 -36 68 -62 114 -27 46 -48 86 -48
88 0 2 -11 19 -24 36 -12 18 -37 61 -55 97 -32 66 -52 101 -61 110 -3 3 -18
30 -34 60 -16 30 -35 62 -42 71 -8 8 -14 19 -14 22 0 4 -16 31 -35 61 -19 30
-35 58 -35 61 0 3 -22 42 -50 86 -27 44 -50 84 -50 87 0 4 -11 19 -25 34 -14
15 -25 31 -25 36 0 5 -7 15 -15 22 -8 7 -15 21 -15 31 0 11 -4 19 -10 19 -5 0
-10 5 -10 10 0 6 -11 28 -25 50 -33 52 -58 52 -73 3z"/>
</g>
</svg>
